<svg xmlns="http://www.w3.org/2000/svg" xmlns:xlink="http://www.w3.org/1999/xlink" width="50" zoomAndPan="magnify" viewBox="0 0 37.5 37.499999" height="50" preserveAspectRatio="xMidYMid meet" version="1.0"><defs><clipPath id="257693bc6f"><path d="M 0 2 L 37.007812 2 L 37.007812 35 L 0 35 Z M 0 2 " clip-rule="nonzero"/></clipPath></defs><path fill="#f0ce6b" d="M 21.8125 18.425781 C 21.8125 18.863281 21.730469 19.285156 21.5625 19.691406 C 21.394531 20.097656 21.15625 20.457031 20.84375 20.765625 C 20.535156 21.074219 20.175781 21.316406 19.769531 21.484375 C 19.363281 21.652344 18.941406 21.734375 18.503906 21.734375 C 18.0625 21.734375 17.640625 21.652344 17.238281 21.484375 C 16.832031 21.316406 16.472656 21.074219 16.164062 20.765625 C 15.851562 20.457031 15.613281 20.097656 15.445312 19.691406 C 15.277344 19.285156 15.191406 18.863281 15.191406 18.425781 C 15.191406 17.984375 15.277344 17.5625 15.445312 17.15625 C 15.613281 16.753906 15.851562 16.394531 16.164062 16.082031 C 16.472656 15.773438 16.832031 15.535156 17.238281 15.367188 C 17.640625 15.199219 18.0625 15.113281 18.503906 15.113281 C 18.941406 15.113281 19.363281 15.199219 19.769531 15.367188 C 20.175781 15.535156 20.535156 15.773438 20.84375 16.082031 C 21.15625 16.394531 21.394531 16.753906 21.5625 17.15625 C 21.730469 17.5625 21.8125 17.984375 21.8125 18.425781 Z M 21.8125 18.425781 " fill-opacity="1" fill-rule="nonzero"/><g clip-path="url(#257693bc6f)"><path fill="#f0ce6b" d="M 6.960938 24.285156 C 7.285156 24.394531 7.609375 24.503906 7.945312 24.597656 C 7.835938 25.03125 7.742188 25.457031 7.652344 25.898438 C 6.894531 29.910156 7.488281 33.089844 9.382812 34.183594 C 11.332031 35.308594 14.613281 34.152344 17.808594 31.355469 C 18.0625 31.132812 18.316406 30.902344 18.566406 30.65625 C 18.886719 30.964844 19.21875 31.261719 19.550781 31.550781 C 22.644531 34.210938 25.699219 35.289062 27.589844 34.195312 C 29.539062 33.070312 30.175781 29.652344 29.351562 25.488281 C 29.289062 25.171875 29.214844 24.84375 29.136719 24.511719 C 29.367188 24.449219 29.589844 24.375 29.816406 24.300781 C 33.984375 22.921875 37.007812 20.6875 37.007812 18.398438 C 37.007812 16.207031 34.160156 14.082031 30.226562 12.730469 C 29.835938 12.597656 29.445312 12.476562 29.054688 12.359375 C 29.121094 12.09375 29.179688 11.824219 29.238281 11.558594 C 30.125 7.25 29.539062 3.789062 27.566406 2.648438 C 25.664062 1.554688 22.566406 2.691406 19.429688 5.421875 C 19.117188 5.691406 18.816406 5.972656 18.523438 6.253906 C 18.328125 6.066406 18.128906 5.878906 17.925781 5.699219 C 14.636719 2.777344 11.339844 1.546875 9.367188 2.699219 C 7.472656 3.796875 6.910156 7.058594 7.707031 11.132812 C 7.785156 11.535156 7.871094 11.933594 7.972656 12.339844 C 7.507812 12.46875 7.054688 12.613281 6.628906 12.765625 C 2.769531 14.101562 0 16.214844 0 18.398438 C 0 20.652344 2.949219 22.914062 6.960938 24.285156 Z M 16.789062 30.175781 C 15.597656 31.265625 14.214844 32.132812 12.714844 32.726562 C 11.910156 33.109375 10.984375 33.148438 10.160156 32.820312 C 9.011719 32.15625 8.535156 29.605469 9.183594 26.171875 C 9.265625 25.765625 9.351562 25.363281 9.453125 24.964844 C 11.070312 25.3125 12.703125 25.550781 14.359375 25.671875 C 15.316406 27.023438 16.363281 28.316406 17.484375 29.53125 C 17.25 29.753906 17.019531 29.972656 16.789062 30.175781 Z M 25.96875 16.605469 C 25.628906 15.964844 25.28125 15.332031 24.921875 14.710938 C 24.566406 14.097656 24.199219 13.488281 23.816406 12.890625 C 24.980469 13.035156 26.09375 13.226562 27.132812 13.46875 C 26.800781 14.539062 26.410156 15.578125 25.96875 16.605469 Z M 25.984375 20.203125 C 26.445312 21.25 26.851562 22.3125 27.203125 23.40625 C 26.082031 23.65625 24.949219 23.855469 23.808594 23.984375 C 24.199219 23.375 24.566406 22.753906 24.929688 22.132812 C 25.296875 21.496094 25.644531 20.851562 25.984375 20.203125 Z M 25.148438 18.40625 C 24.664062 19.402344 24.140625 20.382812 23.585938 21.351562 C 23.039062 22.3125 22.453125 23.246094 21.839844 24.171875 C 20.761719 24.25 19.640625 24.285156 18.507812 24.285156 C 17.371094 24.285156 16.273438 24.25 15.210938 24.183594 C 14.582031 23.269531 13.988281 22.328125 13.433594 21.367188 C 12.875 20.40625 12.363281 19.429688 11.878906 18.433594 L 11.875 18.433594 C 12.351562 17.433594 12.875 16.457031 13.421875 15.496094 C 13.972656 14.539062 14.566406 13.605469 15.1875 12.6875 C 16.269531 12.605469 17.375 12.5625 18.503906 12.5625 C 19.632812 12.5625 20.746094 12.605469 21.824219 12.6875 C 22.4375 13.597656 23.023438 14.53125 23.578125 15.484375 C 24.136719 16.4375 24.65625 17.414062 25.148438 18.40625 Z M 12.078125 14.722656 C 11.722656 15.335938 11.375 15.964844 11.050781 16.601562 C 10.59375 15.527344 10.210938 14.472656 9.894531 13.453125 C 10.933594 13.21875 12.039062 13.03125 13.1875 12.886719 C 12.808594 13.488281 12.429688 14.101562 12.078125 14.722656 Z M 11.050781 20.257812 C 11.382812 20.894531 11.722656 21.527344 12.085938 22.148438 C 12.453125 22.777344 12.828125 23.40625 13.226562 24.019531 C 12.097656 23.894531 10.980469 23.714844 9.871094 23.476562 C 10.191406 22.433594 10.589844 21.359375 11.050781 20.257812 Z M 18.5625 28.417969 C 17.824219 27.625 17.085938 26.742188 16.371094 25.796875 C 17.066406 25.824219 17.78125 25.839844 18.503906 25.839844 C 19.25 25.839844 19.980469 25.824219 20.703125 25.789062 C 20.039062 26.703125 19.320312 27.582031 18.5625 28.417969 Z M 28.007812 30.589844 C 27.941406 31.46875 27.511719 32.292969 26.816406 32.847656 C 25.667969 33.515625 23.21875 32.648438 20.570312 30.378906 C 20.265625 30.117188 19.964844 29.835938 19.652344 29.546875 C 20.757812 28.324219 21.777344 27.03125 22.703125 25.671875 C 24.359375 25.535156 26.007812 25.28125 27.632812 24.914062 C 27.707031 25.210938 27.769531 25.507812 27.828125 25.796875 C 28.183594 27.359375 28.242188 28.984375 28.007812 30.589844 Z M 28.636719 13.851562 C 29.011719 13.957031 29.375 14.074219 29.722656 14.1875 C 33.089844 15.34375 35.453125 17.066406 35.453125 18.382812 C 35.453125 19.796875 32.929688 21.628906 29.324219 22.820312 C 29.121094 22.882812 28.917969 22.949219 28.710938 23.007812 C 28.203125 21.429688 27.582031 19.890625 26.867188 18.394531 C 27.5625 16.921875 28.148438 15.402344 28.636719 13.851562 Z M 20.445312 6.59375 C 23.136719 4.253906 25.644531 3.335938 26.785156 3.992188 C 28.007812 4.695312 28.476562 7.527344 27.710938 11.25 C 27.660156 11.492188 27.609375 11.734375 27.546875 11.972656 C 25.941406 11.609375 24.316406 11.351562 22.679688 11.207031 C 21.742188 9.859375 20.714844 8.574219 19.601562 7.367188 C 19.882812 7.097656 20.15625 6.847656 20.445312 6.59375 Z M 18.519531 8.472656 C 19.277344 9.296875 19.992188 10.164062 20.65625 11.058594 C 19.226562 10.992188 17.789062 10.992188 16.355469 11.058594 C 17.066406 10.128906 17.796875 9.261719 18.519531 8.472656 Z M 10.132812 4.042969 C 11.347656 3.335938 14.042969 4.347656 16.882812 6.863281 C 17.066406 7.019531 17.246094 7.195312 17.433594 7.367188 C 16.3125 8.574219 15.277344 9.859375 14.332031 11.203125 C 12.699219 11.347656 11.082031 11.601562 9.476562 11.957031 C 9.382812 11.585938 9.300781 11.210938 9.222656 10.835938 C 8.542969 7.335938 8.992188 4.699219 10.132812 4.042969 Z M 7.132812 14.230469 C 7.546875 14.085938 7.964844 13.957031 8.386719 13.835938 C 8.875 15.402344 9.46875 16.941406 10.15625 18.429688 C 9.460938 19.941406 8.863281 21.503906 8.363281 23.09375 C 8.058594 23.007812 7.761719 22.914062 7.464844 22.8125 C 5.925781 22.328125 4.175781 21.5625 2.914062 20.558594 C 2.183594 20.050781 1.691406 19.269531 1.554688 18.394531 C 1.554688 17.074219 3.839844 15.378906 7.132812 14.230469 Z M 7.132812 14.230469 " fill-opacity="1" fill-rule="nonzero"/></g></svg>