<svg xmlns="http://www.w3.org/2000/svg" xmlns:xlink="http://www.w3.org/1999/xlink" width="50" zoomAndPan="magnify" viewBox="0 0 37.5 37.499999" height="50" preserveAspectRatio="xMidYMid meet" version="1.0"><defs><clipPath id="9ef9cb8f09"><path d="M 0 10.707031 L 37.007812 10.707031 L 37.007812 26.25 L 0 26.25 Z M 0 10.707031 " clip-rule="nonzero"/></clipPath></defs><g clip-path="url(#9ef9cb8f09)"><path fill="#f0ce6b" d="M 1.949219 10.710938 C 1.035156 10.710938 0.269531 11.339844 0.0585938 12.183594 L 0.0429688 12.246094 L 0.03125 12.316406 L 0.0195312 12.375 L 0.00390625 12.5 L 0 12.5625 L 0 24.347656 C 0 25.421875 0.871094 26.292969 1.949219 26.292969 C 3.023438 26.292969 3.894531 25.421875 3.894531 24.347656 L 3.894531 20.449219 L 7.789062 20.449219 C 8.867188 20.449219 9.738281 19.578125 9.738281 18.503906 L 9.738281 12.660156 C 9.738281 11.585938 8.867188 10.710938 7.789062 10.710938 Z M 29.214844 10.710938 C 28.300781 10.710938 27.53125 11.34375 27.324219 12.195312 L 27.308594 12.257812 L 27.296875 12.328125 L 27.289062 12.386719 L 27.273438 12.511719 L 27.269531 12.574219 L 27.269531 24.347656 C 27.269531 25.421875 28.140625 26.292969 29.214844 26.292969 C 30.289062 26.292969 31.164062 25.421875 31.164062 24.347656 L 31.164062 20.449219 L 35.058594 20.449219 C 36.132812 20.449219 37.007812 19.578125 37.007812 18.503906 L 37.007812 12.660156 C 37.007812 11.585938 36.132812 10.710938 35.058594 10.710938 Z M 19.476562 16.554688 L 17.53125 16.554688 L 17.53125 12.660156 C 17.53125 11.585938 16.65625 10.710938 15.582031 10.710938 C 14.507812 10.710938 13.632812 11.585938 13.632812 12.660156 L 13.632812 24.347656 C 13.632812 25.421875 14.507812 26.292969 15.582031 26.292969 C 16.65625 26.292969 17.53125 25.421875 17.53125 24.347656 L 17.53125 20.449219 L 19.476562 20.449219 L 19.476562 24.347656 C 19.476562 25.421875 20.351562 26.292969 21.425781 26.292969 C 22.5 26.292969 23.371094 25.421875 23.371094 24.347656 L 23.371094 12.660156 C 23.371094 11.585938 22.5 10.710938 21.425781 10.710938 C 20.351562 10.710938 19.476562 11.585938 19.476562 12.660156 Z M 3.894531 14.609375 L 3.894531 16.554688 L 5.84375 16.554688 C 5.84375 16.554688 5.84375 14.609375 5.84375 14.609375 Z M 31.164062 16.554688 L 33.109375 16.554688 C 33.109375 16.554688 33.109375 14.609375 33.109375 14.609375 L 31.164062 14.609375 Z M 31.164062 16.554688 " fill-opacity="1" fill-rule="evenodd"/></g></svg>