<svg xmlns="http://www.w3.org/2000/svg" xmlns:xlink="http://www.w3.org/1999/xlink" width="50" zoomAndPan="magnify" viewBox="0 0 37.5 37.499999" height="50" preserveAspectRatio="xMidYMid meet" version="1.0"><defs><clipPath id="dc5312fbf7"><path d="M 0.613281 0 L 36.140625 0 L 36.140625 37 L 0.613281 37 Z M 0.613281 0 " clip-rule="nonzero"/></clipPath></defs><g clip-path="url(#dc5312fbf7)"><path fill="#f0ce6b" d="M 36.359375 22.757812 L 34.058594 27.082031 C 33.714844 27.726562 33.335938 28.347656 32.914062 28.945312 C 32.496094 29.542969 32.039062 30.113281 31.550781 30.65625 C 31.0625 31.195312 30.539062 31.707031 29.984375 32.183594 C 29.433594 32.660156 28.851562 33.101562 28.246094 33.503906 C 27.636719 33.910156 27.007812 34.277344 26.355469 34.605469 C 25.699219 34.929688 25.03125 35.214844 24.34375 35.460938 C 23.652344 35.703125 22.953125 35.90625 22.238281 36.0625 C 21.527344 36.21875 20.804688 36.332031 20.078125 36.398438 C 19.351562 36.46875 18.625 36.492188 17.894531 36.46875 C 17.164062 36.445312 16.4375 36.378906 15.714844 36.265625 C 14.996094 36.15625 14.28125 36 13.578125 35.800781 C 12.878906 35.597656 12.191406 35.355469 11.519531 35.070312 C 10.847656 34.785156 10.195312 34.460938 9.5625 34.09375 C 8.929688 33.726562 8.324219 33.324219 7.742188 32.882812 C 7.160156 32.441406 6.605469 31.96875 6.082031 31.457031 C 5.558594 30.949219 5.070312 30.40625 4.613281 29.835938 C 4.15625 29.265625 3.738281 28.671875 3.355469 28.050781 C 2.972656 27.425781 2.628906 26.785156 2.328125 26.117188 C 2.023438 25.453125 1.765625 24.773438 1.546875 24.078125 C 1.328125 23.378906 1.152344 22.671875 1.023438 21.953125 C 0.890625 21.234375 0.804688 20.511719 0.761719 19.78125 C 0.722656 19.054688 0.726562 18.324219 0.773438 17.59375 C 0.824219 16.867188 0.917969 16.144531 1.054688 15.425781 C 1.195312 14.710938 1.375 14.003906 1.601562 13.308594 C 1.828125 12.613281 2.097656 11.9375 2.40625 11.277344 C 2.714844 10.613281 3.066406 9.976562 3.453125 9.355469 C 3.84375 8.738281 4.269531 8.148438 4.730469 7.582031 C 5.191406 7.015625 5.6875 6.480469 6.21875 5.976562 C 6.746094 5.472656 7.304688 5.003906 7.890625 4.570312 C 8.476562 4.132812 9.085938 3.738281 9.722656 3.378906 C 10.359375 3.019531 11.015625 2.699219 11.691406 2.421875 C 12.363281 2.144531 13.054688 1.90625 13.757812 1.714844 L 18.4375 0.449219 L 14.972656 3.835938 C 14.484375 4.320312 14.035156 4.835938 13.625 5.382812 C 13.214844 5.933594 12.84375 6.507812 12.519531 7.109375 C 12.195312 7.714844 11.914062 8.335938 11.679688 8.980469 C 11.445312 9.625 11.261719 10.285156 11.125 10.957031 C 10.988281 11.628906 10.902344 12.304688 10.867188 12.988281 C 10.832031 13.675781 10.84375 14.359375 10.910156 15.039062 C 10.976562 15.722656 11.089844 16.394531 11.253906 17.0625 C 11.417969 17.726562 11.632812 18.375 11.890625 19.011719 C 12.152344 19.644531 12.457031 20.253906 12.808594 20.84375 C 13.160156 21.433594 13.554688 21.992188 13.988281 22.523438 C 14.421875 23.054688 14.890625 23.550781 15.398438 24.011719 C 15.90625 24.472656 16.445312 24.890625 17.015625 25.273438 C 17.582031 25.65625 18.175781 25.992188 18.796875 26.285156 C 19.417969 26.578125 20.054688 26.824219 20.710938 27.023438 C 21.367188 27.222656 22.03125 27.375 22.710938 27.472656 C 23.386719 27.574219 24.070312 27.625 24.753906 27.625 C 27.476562 27.636719 29.976562 26.902344 32.261719 25.425781 Z M 36.359375 22.757812 " fill-opacity="1" fill-rule="nonzero"/></g></svg>