<svg xmlns="http://www.w3.org/2000/svg" xmlns:xlink="http://www.w3.org/1999/xlink" width="50" zoomAndPan="magnify" viewBox="0 0 37.5 37.499999" height="50" preserveAspectRatio="xMidYMid meet" version="1.0"><defs><clipPath id="9d46f73870"><path d="M 0 20 L 16 20 L 16 28.023438 L 0 28.023438 Z M 0 20 " clip-rule="nonzero"/></clipPath></defs><g clip-path="url(#9d46f73870)"><path fill="#f0ce6b" d="M 0.140625 26.539062 L 1.347656 26.539062 L 1.347656 21.765625 L 3.222656 25.929688 C 3.445312 26.433594 3.746094 26.613281 4.339844 26.613281 C 4.933594 26.613281 5.222656 26.433594 5.445312 25.929688 L 7.316406 21.765625 L 7.316406 26.542969 L 8.527344 26.542969 L 8.527344 21.773438 C 8.527344 21.308594 8.339844 21.082031 7.957031 20.964844 C 7.039062 20.679688 6.421875 20.925781 6.144531 21.546875 L 4.304688 25.660156 L 2.523438 21.546875 C 2.257812 20.925781 1.628906 20.675781 0.710938 20.964844 C 0.324219 21.082031 0.140625 21.304688 0.140625 21.769531 Z M 9.535156 22.652344 L 10.742188 22.652344 L 10.742188 25.285156 C 10.730469 25.425781 10.789062 25.761719 11.453125 25.773438 C 11.789062 25.777344 14.0625 25.773438 14.082031 25.773438 L 14.082031 22.640625 L 15.296875 22.640625 C 15.300781 22.640625 15.292969 26.914062 15.292969 26.929688 C 15.300781 27.984375 13.988281 28.214844 13.382812 28.230469 L 9.558594 28.230469 L 9.558594 27.417969 L 13.386719 27.417969 C 14.167969 27.335938 14.074219 26.949219 14.074219 26.816406 L 14.074219 26.5 L 11.503906 26.5 C 10.304688 26.488281 9.542969 25.96875 9.535156 25.367188 C 9.535156 25.3125 9.5625 22.679688 9.535156 22.652344 Z M 9.535156 22.652344 " fill-opacity="1" fill-rule="nonzero"/></g><path fill="#f0ce6b" d="M 16.230469 26.539062 L 19.707031 26.539062 C 20.113281 26.539062 20.511719 26.457031 20.824219 26.308594 C 21.347656 26.066406 21.605469 25.742188 21.605469 25.316406 L 21.605469 24.429688 C 21.605469 24.082031 21.3125 23.757812 20.742188 23.539062 C 20.441406 23.421875 20.070312 23.359375 19.707031 23.359375 L 18.242188 23.359375 C 17.753906 23.359375 17.519531 23.214844 17.460938 22.886719 C 17.449219 22.847656 17.449219 22.816406 17.449219 22.777344 L 17.449219 22.226562 C 17.449219 22.199219 17.449219 22.167969 17.460938 22.128906 C 17.519531 21.878906 17.648438 21.808594 18.078125 21.769531 C 18.113281 21.769531 18.160156 21.761719 18.195312 21.761719 L 21.652344 21.761719 L 21.652344 20.953125 L 18.253906 20.953125 C 17.765625 20.953125 17.507812 20.984375 17.277344 21.054688 C 16.554688 21.28125 16.238281 21.640625 16.238281 22.257812 L 16.238281 22.964844 C 16.238281 23.507812 16.855469 23.972656 17.890625 24.082031 C 18.007812 24.089844 18.125 24.097656 18.242188 24.097656 L 19.496094 24.097656 C 19.542969 24.097656 19.589844 24.097656 19.625 24.105469 C 20.007812 24.136719 20.171875 24.207031 20.289062 24.347656 C 20.359375 24.417969 20.382812 24.484375 20.382812 24.5625 L 20.382812 25.265625 C 20.382812 25.351562 20.324219 25.460938 20.207031 25.554688 C 20.101562 25.648438 19.929688 25.710938 19.695312 25.726562 C 19.648438 25.726562 19.613281 25.730469 19.566406 25.730469 L 16.226562 25.730469 L 16.226562 26.539062 Z M 29.152344 25.136719 C 29.152344 25.96875 29.769531 26.433594 31.015625 26.527344 C 31.128906 26.535156 31.246094 26.539062 31.363281 26.539062 L 34.515625 26.539062 L 34.515625 25.734375 L 31.339844 25.734375 C 30.628906 25.734375 30.363281 25.554688 30.363281 25.128906 L 30.363281 20.957031 L 29.152344 20.957031 Z M 22.375 25.179688 L 22.375 22.304688 C 22.375 21.574219 22.890625 21.128906 23.902344 20.988281 C 24.011719 20.972656 24.121094 20.964844 24.230469 20.964844 L 26.527344 20.964844 C 26.640625 20.964844 26.753906 20.972656 26.863281 20.988281 C 27.878906 21.128906 28.390625 21.574219 28.390625 22.304688 L 28.390625 25.179688 C 28.390625 25.773438 28.175781 26.089844 27.671875 26.296875 L 28.863281 27.371094 L 27.457031 27.371094 L 26.496094 26.5 L 25.523438 26.5625 L 24.230469 26.5625 C 24.007812 26.5625 23.773438 26.53125 23.519531 26.460938 C 22.746094 26.25 22.375 25.847656 22.375 25.179688 Z M 23.683594 25.105469 C 23.683594 25.144531 23.695312 25.183594 23.707031 25.230469 C 23.777344 25.566406 24.089844 25.753906 24.566406 25.753906 L 25.664062 25.753906 L 24.65625 24.839844 L 26.0625 24.839844 L 26.941406 25.636719 C 27.101562 25.550781 27.207031 25.417969 27.246094 25.246094 C 27.257812 25.207031 27.257812 25.167969 27.257812 25.132812 L 27.257812 22.375 C 27.257812 22.34375 27.257812 22.300781 27.246094 22.265625 C 27.171875 21.953125 26.859375 21.773438 26.394531 21.773438 L 24.570312 21.773438 C 24.03125 21.773438 23.683594 22.007812 23.683594 22.375 L 23.683594 25.109375 Z M 23.683594 25.105469 " fill-opacity="1" fill-rule="nonzero"/><path fill="#f0ce6b" d="M 35.578125 19.617188 C 34.835938 19.597656 34.269531 19.667969 33.78125 19.871094 C 33.644531 19.929688 33.425781 19.929688 33.402344 20.105469 C 33.476562 20.183594 33.488281 20.300781 33.550781 20.398438 C 33.664062 20.589844 33.859375 20.839844 34.035156 20.972656 C 34.226562 21.117188 34.421875 21.269531 34.628906 21.394531 C 34.992188 21.617188 35.398438 21.742188 35.75 21.964844 C 35.957031 22.097656 36.160156 22.261719 36.363281 22.410156 C 36.460938 22.484375 36.527344 22.597656 36.65625 22.640625 L 36.65625 22.621094 C 36.589844 22.535156 36.574219 22.414062 36.511719 22.324219 L 36.234375 22.050781 C 35.964844 21.691406 35.625 21.378906 35.261719 21.121094 C 34.972656 20.910156 34.324219 20.632812 34.203125 20.292969 L 34.183594 20.273438 C 34.390625 20.25 34.628906 20.175781 34.820312 20.125 C 35.136719 20.039062 35.421875 20.0625 35.75 19.976562 L 36.195312 19.851562 L 36.195312 19.765625 C 36.027344 19.59375 35.910156 19.371094 35.726562 19.214844 C 35.253906 18.8125 34.738281 18.410156 34.207031 18.074219 C 33.910156 17.886719 33.546875 17.765625 33.234375 17.609375 C 33.128906 17.554688 32.941406 17.527344 32.875 17.4375 C 32.707031 17.230469 32.621094 16.964844 32.492188 16.722656 C 32.226562 16.210938 31.964844 15.652344 31.730469 15.113281 C 31.570312 14.746094 31.464844 14.386719 31.265625 14.058594 C 30.304688 12.476562 29.273438 11.523438 27.671875 10.589844 C 27.328125 10.390625 26.917969 10.308594 26.484375 10.207031 L 25.789062 10.164062 C 25.644531 10.105469 25.5 9.933594 25.363281 9.847656 C 24.835938 9.511719 23.472656 8.785156 23.082031 9.742188 C 22.832031 10.34375 23.453125 10.933594 23.671875 11.242188 C 23.828125 11.457031 24.027344 11.699219 24.136719 11.941406 C 24.210938 12.097656 24.222656 12.257812 24.285156 12.425781 C 24.441406 12.839844 24.574219 13.292969 24.773438 13.675781 C 24.875 13.867188 24.984375 14.070312 25.109375 14.246094 C 25.1875 14.351562 25.324219 14.398438 25.34375 14.5625 C 25.214844 14.746094 25.207031 15.027344 25.132812 15.261719 C 24.800781 16.304688 24.925781 17.597656 25.40625 18.371094 C 25.554688 18.605469 25.902344 19.113281 26.378906 18.917969 C 26.796875 18.75 26.703125 18.222656 26.824219 17.757812 C 26.851562 17.652344 26.835938 17.574219 26.886719 17.503906 L 26.886719 17.523438 L 27.269531 18.285156 C 27.550781 18.738281 28.050781 19.214844 28.472656 19.535156 C 28.695312 19.699219 28.867188 19.984375 29.152344 20.082031 L 29.152344 20.0625 L 29.128906 20.0625 C 29.074219 19.976562 28.988281 19.941406 28.917969 19.871094 C 28.753906 19.710938 28.566406 19.507812 28.429688 19.320312 C 28.046875 18.800781 27.707031 18.226562 27.394531 17.628906 C 27.246094 17.34375 27.117188 17.03125 26.992188 16.742188 C 26.945312 16.628906 26.945312 16.460938 26.84375 16.402344 C 26.707031 16.617188 26.507812 16.789062 26.402344 17.039062 C 26.230469 17.4375 26.210938 17.925781 26.148438 18.433594 C 26.109375 18.445312 26.125 18.4375 26.105469 18.457031 C 25.8125 18.382812 25.707031 18.082031 25.597656 17.820312 C 25.320312 17.164062 25.269531 16.101562 25.511719 15.347656 C 25.574219 15.148438 25.859375 14.53125 25.746094 14.351562 C 25.691406 14.171875 25.507812 14.066406 25.40625 13.929688 C 25.28125 13.757812 25.15625 13.535156 25.070312 13.335938 C 24.84375 12.824219 24.734375 12.25 24.496094 11.730469 C 24.382812 11.480469 24.191406 11.230469 24.03125 11.011719 C 23.855469 10.769531 23.660156 10.589844 23.523438 10.292969 C 23.476562 10.191406 23.410156 10.023438 23.484375 9.914062 C 23.496094 9.84375 23.539062 9.800781 23.609375 9.785156 C 23.730469 9.691406 24.074219 9.816406 24.203125 9.871094 C 24.539062 10.011719 24.824219 10.148438 25.113281 10.335938 C 25.25 10.425781 25.390625 10.605469 25.554688 10.65625 L 25.746094 10.65625 C 26.042969 10.722656 26.375 10.675781 26.65625 10.761719 C 27.148438 10.910156 27.585938 11.140625 27.988281 11.394531 C 29.207031 12.164062 30.203125 13.261719 30.886719 14.570312 C 30.996094 14.777344 31.042969 14.980469 31.136719 15.203125 C 31.332031 15.652344 31.578125 16.117188 31.773438 16.558594 C 31.964844 16.996094 32.15625 17.4375 32.429688 17.804688 C 32.574219 17.996094 33.128906 18.101562 33.378906 18.207031 C 33.558594 18.28125 33.847656 18.359375 34.015625 18.460938 C 34.335938 18.652344 34.644531 18.882812 34.945312 19.09375 C 35.097656 19.199219 35.558594 19.433594 35.582031 19.625 Z M 35.578125 19.617188 " fill-opacity="1" fill-rule="nonzero"/><path fill="#f0ce6b" d="M 26.125 11.558594 C 25.972656 11.558594 25.863281 11.578125 25.746094 11.601562 L 25.746094 11.625 L 25.765625 11.625 C 25.839844 11.777344 25.972656 11.875 26.0625 12.003906 L 26.273438 12.449219 L 26.296875 12.425781 C 26.425781 12.335938 26.488281 12.1875 26.484375 11.960938 C 26.433594 11.90625 26.425781 11.835938 26.378906 11.769531 C 26.320312 11.683594 26.199219 11.632812 26.125 11.558594 Z M 26.125 11.558594 " fill-opacity="1" fill-rule="evenodd"/><path fill="#f0ce6b" d="M 35.085938 25.710938 C 35.085938 26.242188 35.503906 26.601562 35.976562 26.601562 C 36.445312 26.601562 36.867188 26.242188 36.867188 25.710938 C 36.867188 25.179688 36.445312 24.820312 35.976562 24.820312 C 35.503906 24.820312 35.085938 25.179688 35.085938 25.710938 Z M 36.667969 25.710938 C 36.667969 26.117188 36.359375 26.417969 35.976562 26.417969 C 35.589844 26.417969 35.285156 26.117188 35.285156 25.710938 C 35.285156 25.308594 35.589844 25.003906 35.976562 25.003906 C 36.359375 25.003906 36.667969 25.308594 36.667969 25.710938 Z M 36.214844 26.21875 L 36.414062 26.21875 L 36.125 25.773438 C 36.28125 25.757812 36.398438 25.679688 36.398438 25.496094 C 36.398438 25.289062 36.269531 25.203125 36.015625 25.203125 L 35.621094 25.203125 L 35.621094 26.21875 L 35.789062 26.21875 L 35.789062 25.78125 L 35.949219 25.78125 Z M 35.789062 25.636719 L 35.789062 25.34375 L 35.988281 25.34375 C 36.089844 25.34375 36.214844 25.363281 36.214844 25.484375 C 36.214844 25.625 36.101562 25.636719 35.972656 25.636719 Z M 35.789062 25.636719 " fill-opacity="1" fill-rule="evenodd"/></svg>