<svg xmlns="http://www.w3.org/2000/svg" xmlns:xlink="http://www.w3.org/1999/xlink" width="50" zoomAndPan="magnify" viewBox="0 0 37.5 37.499999" height="50" preserveAspectRatio="xMidYMid meet" version="1.0"><defs><clipPath id="475cbef5ac"><path d="M 0.503906 0 L 36.769531 0 L 36.769531 37 L 0.503906 37 Z M 0.503906 0 " clip-rule="nonzero"/></clipPath></defs><g clip-path="url(#475cbef5ac)"><path fill="#f0ce6b" d="M 18.550781 36.945312 C 18.332031 36.949219 18.125 36.914062 17.917969 36.847656 L 5.957031 32.859375 C 5.597656 32.738281 5.292969 32.53125 5.050781 32.242188 C 4.808594 31.949219 4.664062 31.617188 4.609375 31.238281 L 0.625 2.328125 C 0.582031 2.042969 0.605469 1.761719 0.6875 1.484375 C 0.769531 1.210938 0.90625 0.960938 1.09375 0.746094 C 1.285156 0.527344 1.507812 0.359375 1.773438 0.238281 C 2.035156 0.121094 2.308594 0.0585938 2.597656 0.0585938 L 34.5 0.0585938 C 34.789062 0.0585938 35.0625 0.121094 35.324219 0.238281 C 35.585938 0.359375 35.8125 0.527344 36.003906 0.742188 C 36.191406 0.960938 36.328125 1.207031 36.410156 1.484375 C 36.492188 1.761719 36.515625 2.039062 36.472656 2.328125 L 32.488281 31.238281 C 32.4375 31.613281 32.289062 31.949219 32.046875 32.238281 C 31.804688 32.53125 31.503906 32.738281 31.140625 32.859375 L 19.179688 36.847656 C 18.972656 36.914062 18.765625 36.949219 18.550781 36.945312 Z M 8.390625 29.46875 L 18.550781 32.851562 L 28.707031 29.460938 L 32.210938 4.046875 L 4.890625 4.046875 Z M 8.390625 29.46875 " fill-opacity="1" fill-rule="nonzero"/></g><path fill="#f0ce6b" d="M 15.558594 27.972656 C 15.246094 27.972656 14.945312 27.902344 14.664062 27.765625 L 10.679688 25.769531 C 10.441406 25.652344 10.238281 25.492188 10.0625 25.292969 C 9.890625 25.09375 9.761719 24.867188 9.675781 24.617188 C 9.59375 24.367188 9.5625 24.109375 9.578125 23.84375 C 9.597656 23.582031 9.667969 23.328125 9.785156 23.09375 C 9.902344 22.855469 10.0625 22.652344 10.261719 22.480469 C 10.464844 22.304688 10.6875 22.175781 10.941406 22.09375 C 11.191406 22.011719 11.449219 21.976562 11.710938 21.996094 C 11.976562 22.015625 12.226562 22.085938 12.460938 22.203125 L 13.5625 22.753906 L 13.5625 12.023438 L 9.578125 12.023438 C 9.3125 12.023438 9.058594 11.972656 8.8125 11.871094 C 8.570312 11.769531 8.355469 11.625 8.167969 11.4375 C 7.980469 11.253906 7.835938 11.035156 7.734375 10.792969 C 7.632812 10.546875 7.582031 10.292969 7.582031 10.03125 C 7.582031 9.765625 7.632812 9.511719 7.734375 9.265625 C 7.835938 9.023438 7.980469 8.804688 8.167969 8.621094 C 8.355469 8.433594 8.570312 8.289062 8.8125 8.1875 C 9.058594 8.085938 9.3125 8.035156 9.578125 8.035156 L 15.558594 8.035156 C 15.824219 8.035156 16.078125 8.085938 16.320312 8.1875 C 16.566406 8.289062 16.78125 8.433594 16.96875 8.621094 C 17.15625 8.804688 17.300781 9.023438 17.398438 9.265625 C 17.5 9.511719 17.550781 9.765625 17.550781 10.03125 L 17.550781 25.980469 C 17.550781 26.246094 17.5 26.5 17.398438 26.742188 C 17.300781 26.988281 17.15625 27.203125 16.96875 27.390625 C 16.78125 27.578125 16.566406 27.722656 16.320312 27.824219 C 16.078125 27.921875 15.824219 27.972656 15.558594 27.972656 Z M 15.558594 27.972656 " fill-opacity="1" fill-rule="nonzero"/><path fill="#f0ce6b" d="M 21.539062 27.972656 C 21.296875 27.972656 21.0625 27.929688 20.832031 27.84375 C 20.605469 27.757812 20.402344 27.632812 20.21875 27.472656 C 20.039062 27.3125 19.890625 27.125 19.777344 26.90625 C 19.664062 26.691406 19.59375 26.464844 19.5625 26.222656 C 19.535156 25.980469 19.546875 25.742188 19.605469 25.507812 C 19.664062 25.269531 19.761719 25.050781 19.898438 24.851562 C 20.035156 24.652344 20.203125 24.480469 20.402344 24.34375 C 20.605469 24.203125 20.820312 24.105469 21.058594 24.046875 L 23.75 23.375 L 24.222656 20 L 22.535156 20 C 22.140625 20 21.757812 19.921875 21.390625 19.769531 C 21.027344 19.621094 20.703125 19.402344 20.421875 19.121094 C 20.140625 18.84375 19.925781 18.519531 19.773438 18.152344 C 19.621094 17.785156 19.546875 17.40625 19.546875 17.007812 L 19.546875 11.027344 C 19.546875 10.628906 19.621094 10.25 19.773438 9.882812 C 19.925781 9.515625 20.140625 9.191406 20.421875 8.910156 C 20.703125 8.632812 21.027344 8.414062 21.390625 8.261719 C 21.757812 8.113281 22.140625 8.035156 22.535156 8.035156 L 27.519531 8.035156 C 27.785156 8.035156 28.039062 8.085938 28.285156 8.1875 C 28.527344 8.289062 28.742188 8.433594 28.929688 8.621094 C 29.117188 8.804688 29.261719 9.023438 29.363281 9.265625 C 29.464844 9.511719 29.515625 9.765625 29.515625 10.03125 C 29.515625 10.292969 29.464844 10.546875 29.363281 10.792969 C 29.261719 11.035156 29.117188 11.253906 28.929688 11.4375 C 28.742188 11.625 28.527344 11.769531 28.285156 11.871094 C 28.039062 11.972656 27.785156 12.023438 27.519531 12.023438 L 23.535156 12.023438 L 23.535156 16.011719 L 25.375 16.011719 C 25.769531 16.011719 26.152344 16.085938 26.519531 16.238281 C 26.886719 16.390625 27.207031 16.605469 27.488281 16.886719 C 27.769531 17.167969 27.984375 17.492188 28.136719 17.855469 C 28.289062 18.222656 28.363281 18.605469 28.363281 19 C 28.363281 19.144531 28.355469 19.289062 28.332031 19.433594 L 27.5 25.265625 C 27.445312 25.664062 27.28125 26.015625 27.007812 26.316406 C 26.738281 26.621094 26.402344 26.820312 26.011719 26.917969 L 22.023438 27.914062 C 21.863281 27.953125 21.703125 27.972656 21.539062 27.972656 Z M 24.386719 18.859375 Z M 24.386719 18.859375 " fill-opacity="1" fill-rule="nonzero"/></svg>