<svg xmlns="http://www.w3.org/2000/svg" xmlns:xlink="http://www.w3.org/1999/xlink" width="50" zoomAndPan="magnify" viewBox="0 0 37.5 37.499999" height="50" preserveAspectRatio="xMidYMid meet" version="1.0"><defs><clipPath id="d28e5f8c55"><path d="M 0.503906 0 L 36.769531 0 L 36.769531 37 L 0.503906 37 Z M 0.503906 0 " clip-rule="nonzero"/></clipPath></defs><g clip-path="url(#d28e5f8c55)"><path fill="#f0ce6b" d="M 18.550781 36.945312 C 18.332031 36.949219 18.125 36.914062 17.917969 36.847656 L 5.957031 32.859375 C 5.597656 32.738281 5.292969 32.53125 5.050781 32.242188 C 4.808594 31.949219 4.664062 31.617188 4.609375 31.238281 L 0.625 2.328125 C 0.582031 2.042969 0.605469 1.761719 0.6875 1.484375 C 0.769531 1.210938 0.90625 0.960938 1.09375 0.746094 C 1.285156 0.527344 1.507812 0.359375 1.773438 0.238281 C 2.035156 0.121094 2.308594 0.0585938 2.597656 0.0585938 L 34.5 0.0585938 C 34.789062 0.0585938 35.0625 0.121094 35.324219 0.238281 C 35.585938 0.359375 35.8125 0.527344 36.003906 0.742188 C 36.191406 0.960938 36.328125 1.207031 36.410156 1.484375 C 36.492188 1.761719 36.515625 2.039062 36.472656 2.328125 L 32.488281 31.238281 C 32.4375 31.613281 32.289062 31.949219 32.046875 32.238281 C 31.804688 32.53125 31.503906 32.738281 31.140625 32.859375 L 19.179688 36.847656 C 18.972656 36.914062 18.765625 36.949219 18.550781 36.945312 Z M 8.390625 29.46875 L 18.550781 32.851562 L 28.707031 29.460938 L 32.210938 4.046875 L 4.890625 4.046875 Z M 8.390625 29.46875 " fill-opacity="1" fill-rule="nonzero"/></g><path fill="#f0ce6b" d="M 18.550781 28.472656 C 18.355469 28.472656 18.164062 28.445312 17.976562 28.390625 L 12.992188 26.894531 C 12.636719 26.789062 12.335938 26.597656 12.089844 26.324219 C 11.84375 26.054688 11.683594 25.738281 11.609375 25.375 L 11.410156 24.378906 C 11.359375 24.125 11.359375 23.875 11.40625 23.625 C 11.453125 23.371094 11.542969 23.136719 11.679688 22.921875 C 11.816406 22.703125 11.992188 22.519531 12.199219 22.371094 C 12.40625 22.222656 12.632812 22.117188 12.882812 22.054688 C 13.132812 21.992188 13.382812 21.976562 13.636719 22.011719 C 13.890625 22.046875 14.128906 22.128906 14.351562 22.253906 C 14.574219 22.382812 14.765625 22.546875 14.925781 22.746094 C 15.085938 22.945312 15.203125 23.167969 15.273438 23.414062 L 18.550781 24.398438 L 21.738281 23.441406 L 22.230469 20 L 12.566406 20 C 12.324219 20 12.089844 19.957031 11.863281 19.871094 C 11.636719 19.785156 11.429688 19.660156 11.25 19.5 C 11.066406 19.339844 10.917969 19.152344 10.804688 18.9375 C 10.691406 18.722656 10.621094 18.492188 10.589844 18.253906 L 9.59375 10.277344 C 9.558594 9.992188 9.582031 9.714844 9.664062 9.441406 C 9.75 9.167969 9.886719 8.925781 10.074219 8.710938 C 10.265625 8.496094 10.488281 8.328125 10.75 8.210938 C 11.011719 8.09375 11.285156 8.035156 11.570312 8.035156 L 25.527344 8.035156 C 25.792969 8.035156 26.046875 8.085938 26.289062 8.1875 C 26.535156 8.289062 26.75 8.433594 26.9375 8.621094 C 27.125 8.804688 27.269531 9.023438 27.371094 9.265625 C 27.46875 9.511719 27.519531 9.765625 27.519531 10.03125 C 27.519531 10.292969 27.46875 10.546875 27.371094 10.792969 C 27.269531 11.035156 27.125 11.253906 26.9375 11.4375 C 26.75 11.625 26.535156 11.769531 26.289062 11.871094 C 26.046875 11.972656 25.792969 12.023438 25.527344 12.023438 L 13.828125 12.023438 L 14.328125 16.011719 L 24.53125 16.011719 C 24.820312 16.011719 25.09375 16.070312 25.359375 16.191406 C 25.621094 16.3125 25.847656 16.480469 26.035156 16.699219 C 26.226562 16.917969 26.363281 17.164062 26.441406 17.441406 C 26.523438 17.71875 26.546875 18 26.503906 18.285156 L 25.507812 25.265625 C 25.453125 25.648438 25.296875 25.988281 25.046875 26.285156 C 24.792969 26.578125 24.480469 26.78125 24.105469 26.894531 L 19.121094 28.390625 C 18.933594 28.445312 18.742188 28.472656 18.550781 28.472656 Z M 18.550781 28.472656 " fill-opacity="1" fill-rule="nonzero"/></svg>